<svg width="159" height="60" viewBox="0 0 159 60" fill="none" xmlns="http://www.w3.org/2000/svg">
<path d="M45.124 7.05936C51.1004 10.3683 55.0451 16.543 56.4881 23.2686C57.9046 29.871 56.2974 36.6875 52.7033 42.3857C49.1627 47.9992 43.7821 52.3998 37.3119 53.6713C31.0612 54.8996 24.7964 52.5483 19.5529 48.9001C14.5961 45.4513 11.3651 40.2967 9.69642 34.4572C7.92579 28.261 6.82858 21.3849 10.109 15.8514C13.4187 10.2683 19.9988 8.09885 26.253 6.52846C32.6013 4.93443 39.3881 3.8836 45.124 7.05936Z" fill="#7DFFE8"/>
<path d="M54.9265 8.68193C60.6369 11.8976 62.2964 19.0493 63.9676 25.4512C65.617 31.7696 67.4425 38.6457 64.2274 44.3109C61.0212 49.9603 54.2747 51.9025 48.044 53.5094C41.9707 55.0756 35.5525 56.02 29.963 53.1474C24.1342 50.1519 19.4467 44.6924 18.2241 38.1844C17.0684 32.032 20.595 26.3314 23.9358 21.0632C27.0358 16.1748 30.8778 11.9515 36.2111 9.82077C42.2556 7.40588 49.2469 5.48361 54.9265 8.68193Z" fill="#29A5FF"/>
<rect x="39" y="20" width="8" height="24" rx="1" fill="#7DFFE8"/>
<rect x="55" y="28" width="8" height="24" rx="1" transform="rotate(90 55 28)" fill="#7DFFE8"/>
<path d="M88.561 11.986V25H86.428V16.594C86.428 16.258 86.446 15.895 86.482 15.505L82.549 22.894C82.363 23.248 82.078 23.425 81.694 23.425H81.352C80.968 23.425 80.683 23.248 80.497 22.894L76.519 15.478C76.537 15.676 76.552 15.871 76.564 16.063C76.576 16.255 76.582 16.432 76.582 16.594V25H74.449V11.986H76.276C76.384 11.986 76.477 11.989 76.555 11.995C76.633 12.001 76.702 12.016 76.762 12.04C76.828 12.064 76.885 12.103 76.933 12.157C76.987 12.211 77.038 12.283 77.086 12.373L80.983 19.6C81.085 19.792 81.178 19.99 81.262 20.194C81.352 20.398 81.439 20.608 81.523 20.824C81.607 20.602 81.694 20.389 81.784 20.185C81.874 19.975 81.97 19.774 82.072 19.582L85.915 12.373C85.963 12.283 86.014 12.211 86.068 12.157C86.122 12.103 86.179 12.064 86.239 12.04C86.305 12.016 86.377 12.001 86.455 11.995C86.533 11.989 86.626 11.986 86.734 11.986H88.561ZM95.7631 21.058C95.1211 21.088 94.5811 21.145 94.1431 21.229C93.7051 21.307 93.3541 21.409 93.0901 21.535C92.8261 21.661 92.6371 21.808 92.5231 21.976C92.4091 22.144 92.3521 22.327 92.3521 22.525C92.3521 22.915 92.4661 23.194 92.6941 23.362C92.9281 23.53 93.2311 23.614 93.6031 23.614C94.0591 23.614 94.4521 23.533 94.7821 23.371C95.1181 23.203 95.4451 22.951 95.7631 22.615V21.058ZM90.6691 17.053C91.7311 16.081 93.0091 15.595 94.5031 15.595C95.0431 15.595 95.5261 15.685 95.9521 15.865C96.3781 16.039 96.7381 16.285 97.0321 16.603C97.3261 16.915 97.5481 17.29 97.6981 17.728C97.8541 18.166 97.9321 18.646 97.9321 19.168V25H96.9241C96.7141 25 96.5521 24.97 96.4381 24.91C96.3241 24.844 96.2341 24.715 96.1681 24.523L95.9701 23.857C95.7361 24.067 95.5081 24.253 95.2861 24.415C95.0641 24.571 94.8331 24.703 94.5931 24.811C94.3531 24.919 94.0951 25 93.8191 25.054C93.5491 25.114 93.2491 25.144 92.9191 25.144C92.5291 25.144 92.1691 25.093 91.8391 24.991C91.5091 24.883 91.2241 24.724 90.9841 24.514C90.7441 24.304 90.5581 24.043 90.4261 23.731C90.2941 23.419 90.2281 23.056 90.2281 22.642C90.2281 22.408 90.2671 22.177 90.3451 21.949C90.4231 21.715 90.5491 21.493 90.7231 21.283C90.9031 21.073 91.1341 20.875 91.4161 20.689C91.6981 20.503 92.0431 20.341 92.4511 20.203C92.8651 20.065 93.3451 19.954 93.8911 19.87C94.4371 19.78 95.0611 19.726 95.7631 19.708V19.168C95.7631 18.55 95.6311 18.094 95.3671 17.8C95.1031 17.5 94.7221 17.35 94.2241 17.35C93.8641 17.35 93.5641 17.392 93.3241 17.476C93.0901 17.56 92.8831 17.656 92.7031 17.764C92.5231 17.866 92.3581 17.959 92.2081 18.043C92.0641 18.127 91.9021 18.169 91.7221 18.169C91.5661 18.169 91.4341 18.13 91.3261 18.052C91.2181 17.968 91.1311 17.872 91.0651 17.764L90.6691 17.053ZM105.66 17.566C105.6 17.662 105.537 17.731 105.471 17.773C105.405 17.809 105.321 17.827 105.219 17.827C105.111 17.827 104.994 17.797 104.868 17.737C104.748 17.677 104.607 17.611 104.445 17.539C104.283 17.461 104.097 17.392 103.887 17.332C103.683 17.272 103.44 17.242 103.158 17.242C102.72 17.242 102.375 17.335 102.123 17.521C101.877 17.707 101.754 17.95 101.754 18.25C101.754 18.448 101.817 18.616 101.943 18.754C102.075 18.886 102.246 19.003 102.456 19.105C102.672 19.207 102.915 19.3 103.185 19.384C103.455 19.462 103.728 19.549 104.004 19.645C104.286 19.741 104.562 19.852 104.832 19.978C105.102 20.098 105.342 20.254 105.552 20.446C105.768 20.632 105.939 20.857 106.065 21.121C106.197 21.385 106.263 21.703 106.263 22.075C106.263 22.519 106.182 22.93 106.02 23.308C105.864 23.68 105.63 24.004 105.318 24.28C105.006 24.55 104.619 24.763 104.157 24.919C103.701 25.069 103.173 25.144 102.573 25.144C102.255 25.144 101.943 25.114 101.637 25.054C101.337 25 101.046 24.922 100.764 24.82C100.488 24.718 100.23 24.598 99.9897 24.46C99.7557 24.322 99.5487 24.172 99.3687 24.01L99.8817 23.164C99.9477 23.062 100.026 22.984 100.116 22.93C100.206 22.876 100.32 22.849 100.458 22.849C100.596 22.849 100.725 22.888 100.845 22.966C100.971 23.044 101.115 23.128 101.277 23.218C101.439 23.308 101.628 23.392 101.844 23.47C102.066 23.548 102.345 23.587 102.681 23.587C102.945 23.587 103.17 23.557 103.356 23.497C103.548 23.431 103.704 23.347 103.824 23.245C103.95 23.143 104.04 23.026 104.094 22.894C104.154 22.756 104.184 22.615 104.184 22.471C104.184 22.255 104.118 22.078 103.986 21.94C103.86 21.802 103.689 21.682 103.473 21.58C103.263 21.478 103.02 21.388 102.744 21.31C102.474 21.226 102.195 21.136 101.907 21.04C101.625 20.944 101.346 20.833 101.07 20.707C100.8 20.575 100.557 20.41 100.341 20.212C100.131 20.014 99.9597 19.771 99.8277 19.483C99.7017 19.195 99.6387 18.847 99.6387 18.439C99.6387 18.061 99.7137 17.701 99.8637 17.359C100.014 17.017 100.233 16.72 100.521 16.468C100.815 16.21 101.178 16.006 101.61 15.856C102.048 15.7 102.552 15.622 103.122 15.622C103.758 15.622 104.337 15.727 104.859 15.937C105.381 16.147 105.816 16.423 106.164 16.765L105.66 17.566ZM111.014 25.144C110.21 25.144 109.592 24.919 109.16 24.469C108.734 24.013 108.521 23.386 108.521 22.588V17.431H107.576C107.456 17.431 107.354 17.392 107.27 17.314C107.186 17.236 107.144 17.119 107.144 16.963V16.081L108.629 15.838L109.097 13.318C109.127 13.198 109.184 13.105 109.268 13.039C109.352 12.973 109.46 12.94 109.592 12.94H110.744V15.847H113.21V17.431H110.744V22.435C110.744 22.723 110.813 22.948 110.951 23.11C111.095 23.272 111.29 23.353 111.536 23.353C111.674 23.353 111.788 23.338 111.878 23.308C111.974 23.272 112.055 23.236 112.121 23.2C112.193 23.164 112.256 23.131 112.31 23.101C112.364 23.065 112.418 23.047 112.472 23.047C112.538 23.047 112.592 23.065 112.634 23.101C112.676 23.131 112.721 23.179 112.769 23.245L113.435 24.325C113.111 24.595 112.739 24.799 112.319 24.937C111.899 25.075 111.464 25.144 111.014 25.144ZM128.298 21.931C128.43 21.931 128.547 21.982 128.649 22.084L129.603 23.119C129.075 23.773 128.424 24.274 127.65 24.622C126.882 24.97 125.958 25.144 124.878 25.144C123.912 25.144 123.042 24.979 122.268 24.649C121.5 24.319 120.843 23.86 120.297 23.272C119.751 22.684 119.331 21.982 119.037 21.166C118.749 20.35 118.605 19.459 118.605 18.493C118.605 17.515 118.761 16.621 119.073 15.811C119.385 14.995 119.823 14.293 120.387 13.705C120.957 13.117 121.635 12.661 122.421 12.337C123.207 12.007 124.077 11.842 125.031 11.842C125.979 11.842 126.819 11.998 127.551 12.31C128.289 12.622 128.916 13.03 129.432 13.534L128.622 14.659C128.574 14.731 128.511 14.794 128.433 14.848C128.361 14.902 128.259 14.929 128.127 14.929C128.037 14.929 127.944 14.905 127.848 14.857C127.752 14.803 127.647 14.74 127.533 14.668C127.419 14.59 127.287 14.506 127.137 14.416C126.987 14.326 126.813 14.245 126.615 14.173C126.417 14.095 126.186 14.032 125.922 13.984C125.664 13.93 125.364 13.903 125.022 13.903C124.44 13.903 123.906 14.008 123.42 14.218C122.94 14.422 122.526 14.722 122.178 15.118C121.83 15.508 121.56 15.988 121.368 16.558C121.176 17.122 121.08 17.767 121.08 18.493C121.08 19.225 121.182 19.876 121.386 20.446C121.596 21.016 121.878 21.496 122.232 21.886C122.586 22.276 123.003 22.576 123.483 22.786C123.963 22.99 124.479 23.092 125.031 23.092C125.361 23.092 125.658 23.074 125.922 23.038C126.192 23.002 126.438 22.945 126.66 22.867C126.888 22.789 127.101 22.69 127.299 22.57C127.503 22.444 127.704 22.291 127.902 22.111C127.962 22.057 128.025 22.015 128.091 21.985C128.157 21.949 128.226 21.931 128.298 21.931ZM136.666 19.321C136.666 19.033 136.624 18.763 136.54 18.511C136.462 18.253 136.342 18.028 136.18 17.836C136.018 17.644 135.811 17.494 135.559 17.386C135.313 17.272 135.025 17.215 134.695 17.215C134.053 17.215 133.546 17.398 133.174 17.764C132.808 18.13 132.574 18.649 132.472 19.321H136.666ZM132.427 20.662C132.463 21.136 132.547 21.547 132.679 21.895C132.811 22.237 132.985 22.522 133.201 22.75C133.417 22.972 133.672 23.14 133.966 23.254C134.266 23.362 134.596 23.416 134.956 23.416C135.316 23.416 135.625 23.374 135.883 23.29C136.147 23.206 136.375 23.113 136.567 23.011C136.765 22.909 136.936 22.816 137.08 22.732C137.23 22.648 137.374 22.606 137.512 22.606C137.698 22.606 137.836 22.675 137.926 22.813L138.565 23.623C138.319 23.911 138.043 24.154 137.737 24.352C137.431 24.544 137.11 24.7 136.774 24.82C136.444 24.934 136.105 25.015 135.757 25.063C135.415 25.111 135.082 25.135 134.758 25.135C134.116 25.135 133.519 25.03 132.967 24.82C132.415 24.604 131.935 24.289 131.527 23.875C131.119 23.455 130.798 22.939 130.564 22.327C130.33 21.709 130.213 20.995 130.213 20.185C130.213 19.555 130.315 18.964 130.519 18.412C130.723 17.854 131.014 17.371 131.392 16.963C131.776 16.549 132.241 16.222 132.787 15.982C133.339 15.742 133.96 15.622 134.65 15.622C135.232 15.622 135.769 15.715 136.261 15.901C136.753 16.087 137.176 16.36 137.53 16.72C137.884 17.074 138.16 17.512 138.358 18.034C138.562 18.55 138.664 19.141 138.664 19.807C138.664 20.143 138.628 20.371 138.556 20.491C138.484 20.605 138.346 20.662 138.142 20.662H132.427ZM142.582 11.626V25H140.359V11.626H142.582ZM147.047 11.626V25H144.824V11.626H147.047ZM85.42 33.986V47H82.99V41.312H76.879V47H74.449V33.986H76.879V39.584H82.99V33.986H85.42ZM95.7474 37.766V47H94.3884C94.0944 47 93.9084 46.865 93.8304 46.595L93.6774 45.857C93.2994 46.241 92.8824 46.553 92.4264 46.793C91.9704 47.027 91.4334 47.144 90.8154 47.144C90.3114 47.144 89.8644 47.06 89.4744 46.892C89.0904 46.718 88.7664 46.475 88.5024 46.163C88.2384 45.851 88.0374 45.482 87.8994 45.056C87.7674 44.624 87.7014 44.15 87.7014 43.634V37.766H89.9244V43.634C89.9244 44.198 90.0534 44.636 90.3114 44.948C90.5754 45.254 90.9684 45.407 91.4904 45.407C91.8744 45.407 92.2344 45.323 92.5704 45.155C92.9064 44.981 93.2244 44.744 93.5244 44.444V37.766H95.7474ZM100.175 44.606C100.427 44.912 100.7 45.128 100.994 45.254C101.294 45.38 101.609 45.443 101.939 45.443C102.281 45.443 102.587 45.383 102.857 45.263C103.133 45.137 103.367 44.945 103.559 44.687C103.751 44.423 103.898 44.09 104 43.688C104.102 43.28 104.153 42.794 104.153 42.23C104.153 41.216 103.985 40.484 103.649 40.034C103.313 39.578 102.83 39.35 102.2 39.35C101.774 39.35 101.402 39.449 101.084 39.647C100.766 39.839 100.463 40.112 100.175 40.466V44.606ZM100.175 38.9C100.547 38.51 100.958 38.201 101.408 37.973C101.864 37.739 102.383 37.622 102.965 37.622C103.499 37.622 103.979 37.727 104.405 37.937C104.837 38.147 105.203 38.45 105.503 38.846C105.809 39.236 106.043 39.71 106.205 40.268C106.367 40.826 106.448 41.453 106.448 42.149C106.448 42.899 106.355 43.58 106.169 44.192C105.983 44.804 105.716 45.329 105.368 45.767C105.026 46.199 104.612 46.535 104.126 46.775C103.64 47.015 103.1 47.135 102.506 47.135C102.218 47.135 101.957 47.105 101.723 47.045C101.489 46.991 101.273 46.913 101.075 46.811C100.877 46.709 100.694 46.586 100.526 46.442C100.364 46.292 100.208 46.127 100.058 45.947L99.9585 46.568C99.9225 46.724 99.8595 46.835 99.7695 46.901C99.6855 46.967 99.5685 47 99.4185 47H97.9515V33.626H100.175V38.9Z" fill="#29A5FF"/>
</svg>
